<svg xmlns="http://www.w3.org/2000/svg" viewBox="0 0 240 300" role="img" aria-label="fd-rauchmelder logo">
  <!-- smoke wisps -->
  <g fill="none" stroke="#9aa4b2" stroke-width="7" stroke-linecap="round">
    <path d="M85 78 C 78 62, 92 52, 85 36 C 80 25, 88 18, 86 10"/>
    <path d="M120 72 C 112 54, 128 44, 120 26 C 115 15, 123 8, 121 0"/>
    <path d="M155 78 C 148 62, 162 52, 155 36 C 150 25, 158 18, 156 10"/>
  </g>
  <!-- detector body: circle nods to the WordPress mark -->
  <circle cx="120" cy="196" r="92" fill="none" stroke="#3858e9" stroke-width="12"/>
  <circle cx="120" cy="196" r="68" fill="none" stroke="#3858e9" stroke-width="4" opacity="0.45"/>
  <!-- grille slots -->
  <g stroke="#3858e9" stroke-width="4" stroke-linecap="round" opacity="0.45">
    <line x1="88" y1="148" x2="152" y2="148"/>
    <line x1="80" y1="244" x2="160" y2="244"/>
  </g>
  <!-- stylized FD -->
  <g fill="none" stroke="#3858e9" stroke-width="13" stroke-linecap="round" stroke-linejoin="round">
    <path d="M84 226 V166 H116"/>
    <path d="M84 196 H110"/>
    <path d="M134 166 V226 H144 A30 30 0 0 0 144 166 Z"/>
  </g>
  <!-- status LED -->
  <circle cx="120" cy="128" r="6" fill="#e2445c"/>
</svg>
